<?xml version="1.0" standalone="no"?>
<!DOCTYPE svg PUBLIC "-//W3C//DTD SVG 20010904//EN"
 "http://www.w3.org/TR/2001/REC-SVG-20010904/DTD/svg10.dtd">
<svg version="1.0" xmlns="http://www.w3.org/2000/svg"
 width="31.297" height="31.297" viewBox="0 0 230.000000 219.000000"
 preserveAspectRatio="xMidYMid meet">

<g transform="translate(0.000000,219.000000) scale(0.100000,-0.100000)"
fill="#000000" stroke="none">
<path d="M722 1693 c-21 -20 -233 -658 -232 -704 0 -15 12 -36 27 -51 34 -31
606 -446 626 -454 9 -3 142 86 333 225 305 221 349 260 339 296 -2 5 -52 160
-111 344 -88 269 -113 336 -132 349 -48 32 -60 13 -137 -219 l-72 -214 -212 0
-213 0 -68 210 c-78 236 -96 263 -148 218z m93 -246 c30 -96 55 -177 55 -180
0 -4 -54 -7 -119 -7 l-119 0 60 180 c33 99 61 180 63 180 3 0 29 -78 60 -173z
m798 -12 l55 -170 -115 -3 c-64 -1 -117 -1 -120 1 -2 2 22 84 54 181 31 97 60
173 64 169 4 -5 32 -84 62 -178z m-635 -489 c45 -140 82 -257 82 -261 0 -4
-90 108 -200 249 -110 140 -200 258 -200 261 0 3 53 5 118 5 l118 0 82 -254z
m362 247 c-1 -24 -187 -575 -192 -567 -3 5 -45 130 -93 278 -47 147 -89 275
-92 282 -4 12 27 14 186 14 105 0 191 -3 191 -7z m298 -3 c-4 -13 -392 -509
-395 -506 -3 3 156 496 164 509 7 11 235 9 231 -3z m-844 -271 c101 -129 182
-235 181 -237 -4 -5 -420 298 -423 309 -5 11 48 172 55 166 2 -3 86 -110 187
-238z m936 159 c12 -37 20 -75 18 -83 -3 -14 -409 -316 -416 -310 -2 2 79 109
180 238 100 129 186 232 189 229 4 -4 16 -37 29 -74z"/>
</g>
</svg>
